<?xml version="1.0" encoding="utf-8"?>
<!-- Generator: Adobe Illustrator 25.4.1, SVG Export Plug-In . SVG Version: 6.00 Build 0)  -->
<svg version="1.1" id="Isolation_Mode" xmlns="http://www.w3.org/2000/svg" xmlns:xlink="http://www.w3.org/1999/xlink" x="0px"
	 y="0px" viewBox="0 0 700 700" style="enable-background:new 0 0 700 700;" xml:space="preserve">
<style type="text/css">
	.st0{fill:#2c2322;}
</style>
<g>
	<path class="st0" d="M161.3,1090.9c-16.2,0.2-33.6-0.4-52-1.8L76.7,1056c19,1.7,37,2.8,53.8,2.9c50.5,0.2,90.5-7.8,117.9-25.7
		c25.8-16.9,40.7-42.8,44.7-77c7.5-64.6-24.6-161.7-75.6-269.3C168.6,583.9,104.5,472.8,45,369.7C-9.4,275.4-58.4,190.6-86.7,127.4
		C-111.1,72.9-117.8,36-99.8,27.3C-65,10.6,58.4,92.4,173.9,170c104.2,70,195.8,129.5,198.9,103.8c2.9-25.4-67.8-117-134.5-203.6
		C177.4-9,123.3-80.4,135-86.1c12.2-5.8,77.9,46.4,141.9,96.4c2.5,2.5,5.1,5,7.7,7.5C220.8-31.9,155.3-83.9,143.5-77.8
		C132-71.7,186.5,0,247.8,79.7c67.1,87.1,138.3,179.1,136,205.1c-2.5,26.2-93.6-32.6-197.3-102.1C71.7,105.7-51.1,24.6-84.9,42.2
		C-102.4,51.5-95.1,89-70,144.2c29,63.9,78.8,149.5,134,244.7C124.4,493,189.5,605.1,239.4,709.4c52.1,108.8,85.6,207.3,79.5,273.5
		c-3.3,35-17.3,61.8-42.3,79.5C250.1,1081.2,211,1090.1,161.3,1090.9z"/>
</g>
</svg>
