<?xml version="1.0" encoding="utf-8"?>
<!-- Generator: Adobe Illustrator 25.4.1, SVG Export Plug-In . SVG Version: 6.00 Build 0)  -->
<svg version="1.1" id="Isolation_Mode" xmlns="http://www.w3.org/2000/svg" xmlns:xlink="http://www.w3.org/1999/xlink" x="0px"
	 y="0px" viewBox="0 0 478 162.7" style="enable-background:new 0 0 478 162.7;" xml:space="preserve">
<style type="text/css">
	.st0{opacity:0.33;}
	.st1{fill:#E54530;}
</style>
<g class="st0">
	<path class="st1" d="M464,40.4c4.7,4.6,9.4,9.6,14,15l-3.9,10.8c-4.6-5.5-9.3-10.7-14.1-15.5c-14.3-14.5-28.8-25.6-43.6-32.7
		c-14-6.7-28.5-9.8-43.3-9.5c-27.8,0.6-57.3,14-85.6,33.1c-27.1,18.3-53.1,41.4-77.3,62.9c-22.1,19.5-41.9,37.2-59,48
		c-14.8,9.2-27.5,12.8-36.1,8c-16.5-9.3-18.9-48.1-20.7-84.5c-1.7-32.8-4-61.6-15.1-61.4C68.5,14.9,52.2,39,36.6,61.7
		C22.3,82.6,9.3,101.1,3.7,98C-2,94.7,0.1,73.6,1.8,53.2c0.3-0.8,0.5-1.6,0.8-2.5C0.9,71.1-1.2,92.1,4.5,95.2
		c5.7,3,18.7-15.6,33-36.6c15.6-23,32-47.2,43-47.7c11.1-0.4,13.5,28.3,15.3,60.9c2,36.2,4.5,74.9,21,83.8c8.7,4.6,21.4,1,36.3-8.6
		c17.2-11,37.1-28.9,59.3-48.8c24.3-21.8,50.4-45.1,77.7-63.9C318.7,14.9,348.3,1.1,376.3,0c14.8-0.5,43.6,8.8,43.6,8.8
		S449.7,26.2,464,40.4z"/>
</g>
</svg>
